<?xml version="1.0" encoding="UTF-8" standalone="no"?>
<svg
   width="28"
   height="28"
   viewBox="0 0 28 28"
   version="1.1"
   id="svg1353"
   sodipodi:docname="music.svg"
   inkscape:version="1.2.2 (732a01da63, 2022-12-09)"
   xmlns:inkscape="http://www.inkscape.org/namespaces/inkscape"
   xmlns:sodipodi="http://sodipodi.sourceforge.net/DTD/sodipodi-0.dtd"
   xmlns="http://www.w3.org/2000/svg"
   xmlns:svg="http://www.w3.org/2000/svg">
  <defs
     id="defs1357" />
  <sodipodi:namedview
     id="namedview1355"
     pagecolor="#ffffff"
     bordercolor="#000000"
     borderopacity="0.25"
     inkscape:showpageshadow="2"
     inkscape:pageopacity="0.0"
     inkscape:pagecheckerboard="0"
     inkscape:deskcolor="#d1d1d1"
     showgrid="false"
     inkscape:zoom="22.028909"
     inkscape:cx="14.276694"
     inkscape:cy="13.981628"
     inkscape:window-width="1350"
     inkscape:window-height="1205"
     inkscape:window-x="2690"
     inkscape:window-y="130"
     inkscape:window-maximized="0"
     inkscape:current-layer="g1351" />
  <title
     id="title1345">Icon_Music</title>
  <description>Created with Sketch.</description>
  <g
     stroke="none"
     stroke-width="1"
     fill="none"
     fill-rule="evenodd"
     id="g1351">
    <path
       d="M28,13.9985 L28,14 L28,14.002 C27.9995,22.651 26.384,24.449 25.4165,25.4165 C24.449,26.384 22.651,27.9995 14.002,28 L14,28 L13.998,28 C5.349,27.9995 3.551,26.384 2.5835,25.4165 C1.616,24.4485 0,22.651 0,14.0005 L0,14 C0,14 0,14 0,13.9995 C0,5.349 1.6155,3.5515 2.5835,2.5835 C3.551,1.616 5.5845,0 13.999,0 L14,0 L14.001,0 C22.4155,0 24.449,1.616 25.4165,2.5835 C26.384,3.551 27.9995,5.349 28,13.9985 L28,13.9985 Z"
       stroke="#03D67F"
       stroke-width="1.005"
       transform="translate(-100.000000, -58.000000) translate(100.000000, 58.000000)"
       id="path1347" />
    <path
       d="M7.33333333,0.333333307 L5.33333333,0.333333307 L5.33333333,9.33333333 C4.63224561,9.06783333 3.16900602,8.90058605 2.33333333,9.33333331 C0.40224614,10.3333333 0.0328777195,11.0195 0.402246141,12.3205 C0.77110579,13.6215 1.5144884,14.3333333 3.33333335,14.3333333 C5.33333311,14.3333333 7.15322807,12.365333 7.33333333,11.333333 L7.33333333,5.33333349 C7.33333333,5.33333349 8.50443912,5.274 9.45482509,6.4845 C9.81910579,6.5395 10.4147368,6.73933334 10.3333333,6.33333334 L10.3333333,3.33333331 C10.3333333,0.469833307 7.33333333,0.333333314 7.33333333,0.333333307 Z M7.33333333,2.33333333 C7.33333333,2.33333333 8.56673588,1.60283333 8.34134992,3.33333333 C7.77582085,3.10166537 7.33333333,3.33333333 7.33333333,3.33333333 L7.33333333,2.33333333 Z M3.5,12.3479818 C4.32842712,12.3479818 5,12.1241241 5,11.8479818 C5,11.5718394 4.32842712,11.3479818 3.5,11.3479818 C2.67157288,11.3479818 2,11.5718394 2,11.8479818 C2,12.1241241 2.67157288,12.3479818 3.5,12.3479818 Z"
       transform="translate(-100.000000, -58.000000) translate(100.000000, 58.000000) translate(8.666667, 6.666667)"
       fill="#0C1B29"
       id="path1349"
       style="fill:#03d67f;fill-opacity:1" />
  </g>
</svg>
