<?xml version="1.0" encoding="UTF-8" standalone="no"?>
<svg
   width="28"
   height="28"
   viewBox="0 0 28 28"
   version="1.1"
   id="svg24"
   sodipodi:docname="soundbook.svg"
   inkscape:version="1.2.2 (732a01da63, 2022-12-09)"
   xmlns:inkscape="http://www.inkscape.org/namespaces/inkscape"
   xmlns:sodipodi="http://sodipodi.sourceforge.net/DTD/sodipodi-0.dtd"
   xmlns="http://www.w3.org/2000/svg"
   xmlns:svg="http://www.w3.org/2000/svg">
  <defs
     id="defs28" />
  <sodipodi:namedview
     id="namedview26"
     pagecolor="#ffffff"
     bordercolor="#000000"
     borderopacity="0.25"
     inkscape:showpageshadow="2"
     inkscape:pageopacity="0.0"
     inkscape:pagecheckerboard="0"
     inkscape:deskcolor="#d1d1d1"
     showgrid="false"
     inkscape:zoom="14.536654"
     inkscape:cx="14.755803"
     inkscape:cy="14.687011"
     inkscape:window-width="1350"
     inkscape:window-height="780"
     inkscape:window-x="2668"
     inkscape:window-y="276"
     inkscape:window-maximized="0"
     inkscape:current-layer="g22" />
  <title
     id="title16">Icon_Soundbook</title>
  <description>Created with Sketch.</description>
  <g
     stroke="none"
     stroke-width="1"
     fill="none"
     fill-rule="evenodd"
     id="g22">
    <path
       d="M 27.468736,13.998557 V 14 14.0019 c -4.81e-4,8.320793 -1.554677,10.050563 -2.485463,10.981349 -0.930786,0.930786 -2.660556,2.484982 -10.981349,2.485463 H 14 13.998076 C 5.6772834,27.468255 3.947513,25.914059 3.0167271,24.983273 2.0859413,24.052006 0.53126438,22.322717 0.53126438,14.000481 V 14 c 0,0 0,0 0,-4.81e-4 0,-8.3222356 1.55419592,-10.051525 2.48546272,-10.9827919 C 3.947513,2.0859413 5.9038468,0.53126438 13.999038,0.53126438 H 14 h 9.62e-4 c 8.095191,0 10.051525,1.55467692 10.982311,2.48546272 0.930786,0.9307859 2.484982,2.6605563 2.485463,10.9818299 z"
       stroke="#03d67f"
       stroke-width="1.005"
       id="path18" />
    <path
       d="m 13.037947,18.606488 v 1.165827 c -1.924105,0 -1.924105,1.924105 -1.924105,1.924105 h 5.772315 c 0,0 0,-1.924105 -1.924105,-1.924105 V 18.587393 C 17.671285,18.213092 19.772315,16.394495 19.772315,14 v -1.924105 c 0,-0.531327 -0.430726,-0.962053 -0.962053,-0.962053 -0.531327,0 -0.962052,0.430726 -0.962052,0.962053 V 14 c 0,1.483169 -1.692848,2.734254 -3.926781,2.734254 -2.196215,0 -3.769639,-1.216518 -3.769639,-2.734254 v -1.924105 c 0,-0.531327 -0.4307261,-0.962053 -0.962053,-0.962053 -0.531327,0 -0.9620526,0.430726 -0.9620526,0.962053 V 14 c 0,2.447404 2.0699656,4.280328 4.8102626,4.606488 z M 11.113842,8.9492238 V 13.27846 c 0,1.461358 1.291949,2.645645 2.886158,2.645645 1.594208,0 2.886157,-1.184287 2.886157,-2.645645 V 8.9492238 C 16.886157,7.487866 15.594208,6.3035793 14,6.3035793 c -1.594209,0 -2.886158,1.1842867 -2.886158,2.6456445 z m 3.84821,0 V 13.27846 C 14.962052,13.637986 14.567128,14 14,14 13.432872,14 13.037947,13.637986 13.037947,13.27846 V 8.9492238 c 0,-0.3595253 0.394925,-0.7215394 0.962053,-0.7215394 0.567128,0 0.962052,0.3620141 0.962052,0.7215394 z"
       fill="#0C1B29"
       id="path20"
       style="fill:#03d67f;fill-opacity:1;stroke-width:0.962053" />
  </g>
</svg>
